<svg width="18" height="18" xmlns="http://www.w3.org/2000/svg">

 <g>
  <title>background</title>
  <rect fill="none" id="canvas_background" height="402" width="582" y="-1" x="-1"/>
 </g>
 <g>
  <title>Layer 1</title>
  <g fill-rule="evenodd" fill="none" id="Page-1">
   <g stroke="null" id="cashgames">
    <g stroke="null" id="Group-12">
     <g stroke="null" id="Group-13">
      <circle stroke="null" r="9" cy="9" cx="9" fill="#13d19c" id="Oval"/>
      <path stroke="null" fill-rule="nonzero" fill="#FFFFFF" id="Shape" d="m11.836029,6.031671c-0.43246,-1.0877 -1.51695,-1.18588 -2.77976,-0.94319l-0.44973,-1.55157l-0.95408,0.27082l0.43803,1.51131c-0.25078,0.0706 -0.50602,0.14892 -0.75959,0.22614l-0.44026,-1.52123l-0.95352,0.27027l0.44862,1.55157c-0.20508,0.06288 -0.40682,0.12466 -0.60466,0.18092l-0.00167,-0.00552l-1.31632,0.37341l0.29258,1.00938c0,0 0.70107,-0.21401 0.69271,-0.19746c0.38676,-0.10976 0.57679,0.07667 0.66874,0.25813l0.51271,1.76724c0.02619,-0.00717 0.0613,-0.01599 0.10254,-0.02206l-0.10087,0.02868l0.71723,2.47656c0.01784,0.1252 0.00223,0.33756 -0.2675,0.41478c0.01505,0.00717 -0.69438,0.19636 -0.69438,0.19636l0.13765,1.18202l1.24164,-0.35301c0.23128,-0.06453 0.45977,-0.1252 0.68324,-0.18753l0.4553,1.56922l0.95297,-0.27027l-0.44973,-1.55268c0.25562,-0.06713 0.5105,-0.137 0.7646,-0.20959l0.44694,1.54605l0.95464,-0.27082l-0.45363,-1.56646c1.57768,-0.54661 2.5847,-1.26531 2.29213,-2.79647c-0.23518,-1.23221 -0.96077,-1.60618 -1.93435,-1.56426c0.47258,-0.43574 0.67599,-1.02482 0.35778,-1.82019l0,-0.00055zm-0.36224,3.73414c0.33994,1.1732 -1.7276,1.61556 -2.37405,1.79978l-0.60243,-2.07942c0.64645,-0.18368 2.62148,-0.94319 2.97592,0.28019l0.00056,-0.00055zm-1.29403,-2.8075c0.30874,1.06729 -1.41941,1.42306 -1.95831,1.57584l-0.54615,-1.88582c0.53835,-0.15279 2.18179,-0.80254 2.50446,0.31053l0,-0.00055z"/>
     </g>
    </g>
   </g>
  </g>
 </g>
</svg>
