<svg width="19px" height="19px" viewBox="0 0 19 19" version="1.1" xmlns="http://www.w3.org/2000/svg" xmlns:xlink="http://www.w3.org/1999/xlink">
    <g id="Page-1" stroke="none" stroke-width="1" fill="none" fill-rule="evenodd" stroke-linecap="round" stroke-linejoin="round">
        <g id="cashgames" transform="translate(-117.000000, -213.000000)" stroke="#13d19c">
            <g id="Group-6" transform="translate(107.000000, 119.000000)">
                <path d="M20,95.8785456 C19.9424112,95.5959496 19.7688178,95.3466742 19.5174606,95.1856322 C19.2661035,95.0245902 18.9576036,94.9649933 18.6599202,95.0199701 L11.9250816,96.260619 C11.3064153,96.3769544 10.9024886,96.9451996 11.0204703,97.5332285 L12.9819921,107.121382 C13.1023039,107.709654 13.702232,108.094022 14.3220719,107.979957 L14.953463,107.863737" id="Path" stroke-width="1.125"></path>
                <polyline id="Path" stroke-width="1.125" points="17 100 16 102.495174 16.46168 103"></polyline>
                <path d="M13.2805,98.3534095 C13.3785583,98.3344262 13.4801358,98.3554537 13.5625988,98.4118065 C13.6450618,98.4681594 13.7015585,98.5551552 13.7195,98.6534095" id="Path" stroke-width="1.125"></path>
                <path d="M12.3534095,98.7195 C12.3344262,98.6214417 12.3554537,98.5198642 12.4118065,98.4374012 C12.4681594,98.3549382 12.5551552,98.2984415 12.6534095,98.2805" id="Path" stroke-width="1.125"></path>
                <path d="M12.7195,98.6466767 C12.6214723,98.6653805 12.5200327,98.6442391 12.4376381,98.587933 C12.3552434,98.5316269 12.2986908,98.4448008 12.2805,98.3466767" id="Path" stroke-width="1.125"></path>
                <path d="M13.6465839,98.28 C13.6655832,98.3781777 13.644583,98.4798774 13.5882498,98.5624994 C13.5319165,98.6451215 13.4449169,98.7018216 13.3465839,98.72" id="Path" stroke-width="1.125"></path>
                <path d="M20.0385811,99.01146 L27.3837183,100.425999 C27.790458,100.504329 28.0566862,100.897557 27.9783556,101.304296 C27.9774753,101.308867 27.9765524,101.31343 27.9755871,101.317984 L25.8369479,111.407591 C25.7521864,111.807476 25.3628135,112.065841 24.9614189,111.98854 L17.6162817,110.574001 C17.209542,110.495671 16.9433138,110.102443 17.0216444,109.695704 C17.0225247,109.691133 17.0234476,109.68657 17.0244129,109.682016 L19.1630521,99.5924092 C19.2478136,99.1925235 19.6371865,98.9341587 20.0385811,99.01146 Z" id="Rectangle" stroke-width="1.12477723"></path>
                <path d="M22.352,107 L22.648,106" id="Path" stroke-width="1.125"></path>
                <path d="M22.9018504,102 C22.9018504,102 21.2287526,102.789812 21.0301016,103.922313 C20.8655337,104.860936 21.3922574,105.775614 22.2065719,105.965303 C23.0208864,106.154993 23.8144274,105.547863 23.9789953,104.609241 C24.1776463,103.475965 22.9018504,102 22.9018504,102 Z" id="Path" stroke-width="1.125"></path>
                <path d="M20.3497279,100.279 C20.5526843,100.320157 20.6838586,100.518038 20.6427279,100.721" id="Path" stroke-width="1.125"></path>
                <path d="M20.279,100.650272 C20.3201574,100.447316 20.5180382,100.316141 20.721,100.357272" id="Path" stroke-width="1.125"></path>
                <path d="M20.6502721,100.721 C20.4473157,100.679843 20.3161414,100.481962 20.3572721,100.279" id="Path" stroke-width="1.125"></path>
                <path d="M20.721,100.349728 C20.6798426,100.552684 20.4819618,100.683859 20.279,100.642728" id="Path" stroke-width="1.125"></path>
                <path d="M24.3497279,109.279 C24.5526843,109.320157 24.6838586,109.518038 24.6427279,109.721" id="Path" stroke-width="1.125"></path>
                <path d="M23.279,109.650272 C23.3201574,109.447316 23.5180382,109.316141 23.721,109.357272" id="Path" stroke-width="1.125"></path>
                <path d="M23.6501825,109.721 C23.4475587,109.679349 23.3166355,109.481848 23.3571825,109.279" id="Path" stroke-width="1.125"></path>
                <path d="M24.721,109.349728 C24.6798426,109.552684 24.4819618,109.683859 24.279,109.642728" id="Path" stroke-width="1.125"></path>
            </g>
        </g>
    </g>
</svg>
