<svg width="18px" height="18px" viewBox="0 0 18 18" version="1.1" xmlns="http://www.w3.org/2000/svg" xmlns:xlink="http://www.w3.org/1999/xlink">
    <g id="Page-1" stroke="none" stroke-width="1" fill="none" fill-rule="evenodd">
        <g id="cashgames" transform="translate(-1198.000000, -23.000000)">
            <g id="Group-12" transform="translate(1188.000000, 16.000000)">
                <g id="Group-13" transform="translate(10.000000, 7.000000)">
                    <circle id="Oval" fill="#FF9900" cx="9" cy="9" r="9"></circle>
                    <path transform="rotate(30, 9, 9)" d="M12.3729361,5.49476007 C11.9404796,4.40706012 10.8559949,4.30888031 9.59317755,4.55157198 L9.14344517,3 L8.18936606,3.27082184 L8.62739537,4.78212907 C8.37661523,4.85273028 8.12137678,4.9310535 7.8678102,5.00827358 L7.42755173,3.48703806 L6.47402992,3.75730833 L6.92264772,5.30888031 C6.7175653,5.37175951 6.51582661,5.43353558 6.31798895,5.48979592 L6.31631708,5.4842802 L5,5.85769443 L5.29257683,6.86707115 C5.29257683,6.86707115 5.99364664,6.65306122 5.9852873,6.66960838 C6.372046,6.55984556 6.56208161,6.74627689 6.65403433,6.92774407 L7.16674039,8.69498069 C7.19293298,8.68781026 7.2280422,8.67898511 7.2692816,8.67291782 L7.16841226,8.70159956 L7.88564345,11.1781577 C7.90347671,11.3033646 7.88787261,11.5157198 7.61814464,11.5929399 C7.63319145,11.6001103 6.9237623,11.7892995 6.9237623,11.7892995 L7.06141273,12.9713183 L8.30305306,12.6183122 C8.53432808,12.5537783 8.76281665,12.4931054 8.98628961,12.4307777 L9.44159489,14 L10.3945594,13.7297297 L9.94482703,12.1770546 C10.2004508,12.1099223 10.4553327,12.0400524 10.7094278,11.9674573 L11.1563737,13.5135135 L12.1110101,13.2426917 L11.6573767,11.6762272 C13.2350624,11.1296194 14.242084,10.4109211 13.9495072,8.87975731 C13.7143311,7.6475455 12.9887406,7.2735797 12.0151564,7.31549917 C12.4877376,6.87975731 12.6911482,6.29067843 12.3729361,5.49531164 L12.3729361,5.49476007 Z M12.0106981,9.22890237 C12.3506445,10.402096 10.2831016,10.8444567 9.6366461,11.0286817 L9.03421648,8.94925538 C9.68067195,8.76558191 11.6557049,8.00606729 12.0101408,9.22945394 L12.0106981,9.22890237 Z M10.7166726,6.42140099 C11.0254108,7.48869277 9.29725698,7.8444567 8.75835833,7.99724214 L8.21221492,6.11141754 C8.75055628,5.9586321 10.3940021,5.30888031 10.7166726,6.42195256 L10.7166726,6.42140099 Z" id="Shape" fill="#FFFFFF" fill-rule="nonzero"></path>
                </g>
            </g>
        </g>
    </g>
</svg>
