<svg width="19px" height="19px" viewBox="0 0 19 19" version="1.1" xmlns="http://www.w3.org/2000/svg" xmlns:xlink="http://www.w3.org/1999/xlink">
    <g id="Page-1" stroke="none" stroke-width="1" fill="none" fill-rule="evenodd" stroke-linecap="round" stroke-linejoin="round">
        <g id="cashgames" transform="translate(-117.000000, -368.000000)" stroke="#13d19c" stroke-width="1.125">
            <g id="Group-6" transform="translate(107.000000, 119.000000)">
                <g id="Group-11" transform="translate(11.000000, 250.000000)">
                    <path d="M9.31249933,10.3125007 C9.41203697,10.3122342 9.50757461,10.3516574 9.57795861,10.4220414 C9.6483426,10.4924254 9.68776583,10.587963 9.68749933,10.6875007" id="Path"></path>
                    <path d="M9.6875,11.6875 C9.48039322,11.6875 9.3125,11.5196068 9.3125,11.3125" id="Path"></path>
                    <path d="M3.6875,14.6875 C3.48039322,14.6875 3.3125,14.5196068 3.3125,14.3125" id="Path"></path>
                    <path d="M1.6875,10.6875 C1.48039322,10.6875 1.3125,10.5196068 1.3125,10.3125" id="Path"></path>
                    <path d="M2.65957174,12.7135 C2.45491947,12.6821655 2.31410464,12.4912832 2.34457174,12.2865" id="Path"></path>
                    <path d="M8.31249933,13.3125007 C8.41203697,13.3122342 8.50757461,13.3516574 8.57795861,13.4220414 C8.6483426,13.4924254 8.68776583,13.587963 8.68749933,13.6875007" id="Path"></path>
                    <path d="M7.31250067,13.6875007 C7.31223417,13.587963 7.3516574,13.4924254 7.42204139,13.4220414 C7.49242539,13.3516574 7.58796303,13.3122342 7.68750067,13.3125007" id="Path"></path>
                    <path d="M11.3125,2.6875 C11.3125,2.48039322 11.4803932,2.3125 11.6875,2.3125" id="Path"></path>
                    <path d="M14.3125,5.6875 C14.3125,5.48039322 14.4803932,5.3125 14.6875,5.3125" id="Path"></path>
                    <path d="M15.3125,8.3125 C15.5196068,8.3125 15.6875,8.48039322 15.6875,8.6875" id="Path"></path>
                    <path d="M14.3125,8.6875 C14.3125,8.48039322 14.4803932,8.3125 14.6875,8.3125" id="Path"></path>
                    <polyline id="Path" points="6 3 11.5 5 17 3"></polyline>
                    <path d="M11.5,11.9999867 C11.8623105,12.0011701 12.220823,11.923285 12.5523333,11.7713724 L16.3466,10.0186624 C16.7439691,9.8352136 17.0000552,9.42573937 17,8.97389492 L17,3.02992213 C17.0000552,2.57807768 16.7439691,2.16860345 16.3466,1.9851546 L12.5523333,0.232444675 C11.8824759,-0.0774815583 11.1175241,-0.0774815583 10.4476667,0.232444675 L6.6534,1.9851546 C6.25700146,2.16815365 6.00110225,2.57613522 6,3.02687394 L6,5.14155657" id="Path"></path>
                    <path d="M5.6875,7.3125 C5.6875,7.51960678 5.51960678,7.6875 5.3125,7.6875" id="Path"></path>
                    <path d="M9.31250067,10.6875007 C9.31223417,10.587963 9.3516574,10.4924254 9.42204139,10.4220414 C9.49242539,10.3516574 9.58796303,10.3122342 9.68750067,10.3125007" id="Path"></path>
                    <path d="M9.6875,11.3125 C9.6875,11.5196068 9.51960678,11.6875 9.3125,11.6875" id="Path"></path>
                    <path d="M3.6875,14.3125 C3.6875,14.5196068 3.51960678,14.6875 3.3125,14.6875" id="Path"></path>
                    <path d="M1.6875,10.3125 C1.6875,10.5196068 1.51960678,10.6875 1.3125,10.6875" id="Path"></path>
                    <path d="M2.7135,12.3403839 C2.6986986,12.4388035 2.64537981,12.5273023 2.5652885,12.5863861 C2.4851972,12.6454698 2.38490358,12.6702917 2.2865,12.6553839" id="Path"></path>
                    <path d="M7.6875,13.6875 C7.48039322,13.6875 7.3125,13.5196068 7.3125,13.3125" id="Path"></path>
                    <path d="M8.6875,13.3125 C8.6875,13.5196068 8.51960678,13.6875 8.3125,13.6875" id="Path"></path>
                    <path d="M11.6875,2.6875 C11.4803932,2.6875 11.3125,2.51960678 11.3125,2.3125" id="Path"></path>
                    <path d="M15.3125,5.3125 C15.5196068,5.3125 15.6875,5.48039322 15.6875,5.6875" id="Path"></path>
                    <path d="M14.6875,5.6875 C14.4803932,5.6875 14.3125,5.51960678 14.3125,5.3125" id="Path"></path>
                    <path d="M14.6875,8.6875 C14.4803932,8.6875 14.3125,8.51960678 14.3125,8.3125" id="Path"></path>
                    <path d="M15.6875,8.3125 C15.6875,8.51960678 15.5196068,8.6875 15.3125,8.6875" id="Path"></path>
                    <path d="M5.5,10 L5.5,17" id="Path"></path>
                    <polyline id="Path" points="0 8 5.5 10 11 8"></polyline>
                    <path d="M4.44766923,16.7676292 C5.11752644,17.0774569 5.88247787,17.0774569 6.55233507,16.7676292 L10.3466002,15.0154767 C10.7439692,14.8320861 11.0000552,14.4227421 11,13.9710413 L11,8.02895865 C11.0000552,7.57725788 10.7439692,7.16791386 10.3466002,6.98452335 L6.55233507,5.23237076 C5.88247787,4.92254308 5.11752644,4.92254308 4.44766923,5.23237076 L0.653404058,6.98223793 C0.255061177,7.16607583 -0.00121260995,7.57691517 4.31499924e-06,8.02972046 L4.31499924e-06,13.9718032 C-5.08721176e-05,14.4235039 0.256035148,14.8328479 0.653404058,15.0162385 L4.44766923,16.7676292 Z" id="Path"></path>
                    <path d="M5.6875,7.6875 C5.48039322,7.6875 5.3125,7.51960678 5.3125,7.3125" id="Path"></path>
                    <path d="M11.3125,2.3125 C11.5196068,2.3125 11.6875,2.48039322 11.6875,2.6875" id="Path"></path>
                </g>
            </g>
        </g>
    </g>
</svg>
