<?xml version="1.0" encoding="utf-8"?>
<!-- Generator: Adobe Illustrator 16.0.4, SVG Export Plug-In . SVG Version: 6.00 Build 0)  -->
<!DOCTYPE svg PUBLIC "-//W3C//DTD SVG 1.1//EN" "http://www.w3.org/Graphics/SVG/1.1/DTD/svg11.dtd">

<svg width="17px" height="19px" viewBox="0 0 17 19" version="1.1" xmlns="http://www.w3.org/2000/svg" xmlns:xlink="http://www.w3.org/1999/xlink">
    <g id="Page-1" stroke="none" stroke-width="1" fill="none" fill-rule="evenodd" stroke-linecap="round" stroke-linejoin="round">
        <g id="cashgames" transform="translate(-116.000000, -138.000000)" fill="none" stroke="#13d19c" stroke-width="1.125">
            <g id="Group-6" transform="translate(107.000000, 119.000000)">
                <path d="M17.3676926,20.7933332 C16.1819696,20.1659839 14.7792892,20.1022692 13.5419718,20.6195555 C13.4569223,20.6558221 13.3793993,20.6875555 13.3063923,20.7139999 C13.1182768,20.7815188 12.9111387,20.7711899 12.7306149,20.6852888 C12.5523023,20.2693891 12.1445064,19.9999416 11.6934629,20 L11.1289753,20 C10.5054594,20 10,20.5074105 10,21.1333332 L10,25.6666658 C10,26.2925884 10.5054594,26.799999 11.1289753,26.799999 L11.6934629,26.799999 C12.3169787,26.799999 12.8224382,26.2925884 12.8224382,25.6666658 L12.8224382,25.4626659 C12.8227139,24.9478381 13.1686248,24.4978767 13.6646537,24.3671105 C14.5232537,24.0946924 15.4522473,24.1539723 16.269576,24.5333327 C17.2931803,25.1770659 18.5230107,25.6711992 19.5812368,25.1226659 L20.7230072,24.5333327 C17.1057704,28.1645321 14.9659859,31.4088872 14.5768658,35.7639087 C14.5480657,36.0814616 14.6538565,36.3965026 14.8682862,36.6317471 C15.0827158,36.8669916 15.3859437,37.0006731 15.7035831,36.9999975 L19.6263958,36.9999975 C20.2383885,36.9981956 20.7382948,36.5087382 20.7553711,35.8946198 C20.8592368,32.1667093 21.0842792,30.0503985 24.8776362,22.445733 C25.0980666,22.007019 25.0154148,21.4760661 24.6721627,21.1257776 L24.2032616,20.654311 C23.8144041,20.270841 23.2096617,20.2170334 22.7596785,20.5258666 C21.1449502,21.5939842 19.0794521,21.6964421 17.3676926,20.7933332 Z" id="Path"></path>
            </g>
        </g>
    </g>
</svg>
