<svg width="19px" height="19px" viewBox="0 0 19 19" version="1.1" xmlns="http://www.w3.org/2000/svg" xmlns:xlink="http://www.w3.org/1999/xlink">
    <g id="Page-1" stroke="none" stroke-width="1" fill="none" fill-rule="evenodd" stroke-linecap="round" stroke-linejoin="round">
        <g id="cashgames" transform="translate(-116.000000, -253.000000)" stroke="#13d19c" stroke-width="1.125">
            <g id="Group-6" transform="translate(107.000000, 119.000000)">
                <path d="M14.6149269,139 L10.9102562,139.784518 C10.2872581,139.917617 9.89170607,140.521061 10.026275,141.133099 L12.2261651,151.106057 C12.3616925,151.71789 12.976149,152.106353 13.5993548,151.974196 L19,150.824786" id="Path"></path>
                <path d="M12.2775,141.360756 C12.3745793,141.339685 12.4760531,141.358102 12.5595361,141.411944 C12.6430192,141.465786 12.701652,141.550628 12.7225,141.647756" id="Path"></path>
                <path d="M12.3611806,141.7245 C12.3389112,141.626838 12.3567485,141.524325 12.4106966,141.439926 C12.4646448,141.355526 12.5501944,141.296294 12.6481806,141.2755" id="Path"></path>
                <path d="M12.7225,141.639244 C12.6254207,141.660315 12.5239469,141.641898 12.4404639,141.588056 C12.3569808,141.534214 12.298348,141.449372 12.2775,141.352244" id="Path"></path>
                <path d="M12.6392354,141.277 C12.6603266,141.374202 12.6419371,141.475802 12.5881132,141.559445 C12.5342892,141.643088 12.4494404,141.701921 12.3522354,141.723" id="Path"></path>
                <path d="M17.8036703,138.77861 L25.2378695,138.740133 C25.6520775,138.737989 25.9895973,139.072034 25.9917411,139.486242 C25.9917546,139.488848 25.9917545,139.491455 25.9917408,139.494062 L25.9360373,150.099782 C25.9338778,150.510939 25.6010864,150.843705 25.1899293,150.845833 L17.7557301,150.884309 C17.3415221,150.886453 17.0040023,150.552409 17.0018585,150.138201 C17.001845,150.135594 17.0018451,150.132987 17.0018588,150.13038 L17.0575623,139.52466 C17.0597217,139.113504 17.3925131,138.780738 17.8036703,138.77861 Z" id="Rectangle" transform="translate(21.496800, 144.812221) rotate(17.680000) translate(-21.496800, -144.812221) "></path>
                <polygon id="Path" points="22.1372273 143 20 144.5219 20.862069 147 23 145.4781"></polygon>
                <path d="M20.3692745,140.2645 C20.5663651,140.327601 20.6754161,140.538105 20.6132745,140.7355" id="Path"></path>
                <path d="M20.2645,139.630399 C20.3275699,139.433326 20.5383463,139.324582 20.7355,139.387399" id="Path"></path>
                <path d="M20.6309322,140.7355 C20.5359456,140.705647 20.4567837,140.63915 20.410984,140.550742 C20.3651843,140.462333 20.3565278,140.359312 20.3869322,140.2645" id="Path"></path>
                <path d="M20.7355,140.369601 C20.6724301,140.566674 20.4616537,140.675418 20.2645,140.612601" id="Path"></path>
                <path d="M22.3696007,149.2645 C22.5666738,149.32757 22.6754183,149.538346 22.6126007,149.7355" id="Path"></path>
                <path d="M22.2645,149.630725 C22.3276007,149.433635 22.5381049,149.324584 22.7355,149.386725" id="Path"></path>
                <path d="M22.6303993,149.7355 C22.4333262,149.67243 22.3245817,149.461654 22.3873993,149.2645" id="Path"></path>
                <path d="M22.7355,149.369197 C22.7054173,149.464025 22.6388859,149.543013 22.5505502,149.588775 C22.4622144,149.634537 22.3593147,149.643322 22.2645,149.613197" id="Path"></path>
                <path d="M24,139.080335 L24,136.092073 C23.9765879,135.49641 23.4827692,135.019648 22.8689703,135.000109 L16.1974032,135.000109 C15.5632805,134.991711 15.0351257,135.470138 15.0000198,136.084754 L15.0000198,145.9095 C14.9966583,146.464353 15.4225269,146.933441 15.9900477,147" id="Path"></path>
                <path d="M17.313994,136.3115 C17.4133598,136.312028 17.5084308,136.352077 17.5782234,136.422808 C17.6480161,136.493539 17.6867924,136.589136 17.685994,136.6885" id="Path"></path>
                <path d="M16.313,136.686 C16.3146437,136.480455 16.4814491,136.314542 16.687,136.314" id="Path"></path>
                <path d="M16.6865007,137.689 C16.4794628,137.686804 16.3129399,137.518049 16.3135007,137.311" id="Path"></path>
                <path d="M17.6885,137.313497 C17.687971,137.412954 17.6479539,137.508127 17.5772524,137.578078 C17.5065509,137.64803 17.4109566,137.687029 17.3115,137.686497" id="Path"></path>
            </g>
        </g>
    </g>
</svg>
